<?xml version="1.0" standalone="no"?>
<!DOCTYPE svg PUBLIC "-//W3C//DTD SVG 20010904//EN"
 "http://www.w3.org/TR/2001/REC-SVG-20010904/DTD/svg10.dtd">
<svg version="1.0" xmlns="http://www.w3.org/2000/svg"
 width="252.000000pt" height="248.000000pt" viewBox="0 0 252.000000 248.000000"
 preserveAspectRatio="xMidYMid meet">

<g transform="translate(0.000000,248.000000) scale(0.100000,-0.100000)"
fill="#000000" stroke="none">
<path d="M2355 2378 c56 -49 109 -129 135 -202 13 -37 19 -44 19 -26 2 47 -56
150 -119 211 -33 33 -66 59 -72 59 -6 0 11 -19 37 -42z"/>
<path d="M2511 2104 c0 -11 3 -14 6 -6 3 7 2 16 -1 19 -3 4 -6 -2 -5 -13z"/>
<path d="M2501 328 c-2 -35 -53 -134 -93 -183 l-41 -50 37 35 c43 40 110 169
103 196 -4 16 -5 17 -6 2z"/>
</g>
</svg>
